{
  "meta": {
    "label": "percussion_test.wav",
    "duration_s": 10.0,
    "samples": 441000,
    "sample_rate": 44100
  },
  "codecs": {
    "mp3": {
      "32": {
        "snr_db": 17.77,
        "psnr_db": 45.21,
        "mse": 3.01e-05,
        "spectral_distortion_db": 17.13,
        "compression_ratio": 43.716,
        "space_saving_pct": 97.7,
        "effective_bitrate_kbps": 32.3,
        "encode_latency_ms": 1029.73,
        "decode_latency_ms": 677.22,
        "compressed_bytes": 40351,
        "original_bytes": 1764000
      },
      "64": {
        "snr_db": 23.85,
        "psnr_db": 51.29,
        "mse": 7.4e-06,
        "spectral_distortion_db": 6.49,
        "compression_ratio": 21.913,
        "space_saving_pct": 95.4,
        "effective_bitrate_kbps": 64.4,
        "encode_latency_ms": 437.19,
        "decode_latency_ms": 224.31,
        "compressed_bytes": 80501,
        "original_bytes": 1764000
      },
      "96": {
        "snr_db": 25.69,
        "psnr_db": 53.13,
        "mse": 4.9e-06,
        "spectral_distortion_db": 6.13,
        "compression_ratio": 14.611,
        "space_saving_pct": 93.2,
        "effective_bitrate_kbps": 96.6,
        "encode_latency_ms": 334.83,
        "decode_latency_ms": 697.28,
        "compressed_bytes": 120730,
        "original_bytes": 1764000
      },
      "128": {
        "snr_db": 25.89,
        "psnr_db": 53.33,
        "mse": 4.6e-06,
        "spectral_distortion_db": 6.08,
        "compression_ratio": 10.959,
        "space_saving_pct": 90.9,
        "effective_bitrate_kbps": 128.8,
        "encode_latency_ms": 216.84,
        "decode_latency_ms": 213.51,
        "compressed_bytes": 160958,
        "original_bytes": 1764000
      },
      "192": {
        "snr_db": 30.32,
        "psnr_db": 57.76,
        "mse": 1.7e-06,
        "spectral_distortion_db": 6.08,
        "compression_ratio": 7.307,
        "space_saving_pct": 86.3,
        "effective_bitrate_kbps": 193.1,
        "encode_latency_ms": 246.15,
        "decode_latency_ms": 200.36,
        "compressed_bytes": 241415,
        "original_bytes": 1764000
      },
      "256": {
        "snr_db": 59.81,
        "psnr_db": 87.25,
        "mse": 0.0,
        "spectral_distortion_db": 5.57,
        "compression_ratio": 5.48,
        "space_saving_pct": 81.8,
        "effective_bitrate_kbps": 257.5,
        "encode_latency_ms": 253.43,
        "decode_latency_ms": 197.48,
        "compressed_bytes": 321872,
        "original_bytes": 1764000
      },
      "320": {
        "snr_db": 61.64,
        "psnr_db": 89.08,
        "mse": 0.0,
        "spectral_distortion_db": 5.29,
        "compression_ratio": 4.384,
        "space_saving_pct": 77.2,
        "effective_bitrate_kbps": 321.9,
        "encode_latency_ms": 273.82,
        "decode_latency_ms": 201.45,
        "compressed_bytes": 402329,
        "original_bytes": 1764000
      }
    },
    "aac": {
      "32": {
        "snr_db": -3.23,
        "psnr_db": 24.21,
        "mse": 0.003794,
        "spectral_distortion_db": 13.42,
        "compression_ratio": 40.267,
        "space_saving_pct": 97.5,
        "effective_bitrate_kbps": 35.0,
        "encode_latency_ms": 237.39,
        "decode_latency_ms": 420.72,
        "compressed_bytes": 43808,
        "original_bytes": 1764000
      },
      "64": {
        "snr_db": -3.31,
        "psnr_db": 24.13,
        "mse": 0.0038656,
        "spectral_distortion_db": 10.5,
        "compression_ratio": 21.01,
        "space_saving_pct": 95.2,
        "effective_bitrate_kbps": 67.2,
        "encode_latency_ms": 224.23,
        "decode_latency_ms": 394.97,
        "compressed_bytes": 83962,
        "original_bytes": 1764000
      },
      "96": {
        "snr_db": -3.32,
        "psnr_db": 24.12,
        "mse": 0.0038715,
        "spectral_distortion_db": 11.7,
        "compression_ratio": 13.873,
        "space_saving_pct": 92.8,
        "effective_bitrate_kbps": 101.7,
        "encode_latency_ms": 411.95,
        "decode_latency_ms": 390.9,
        "compressed_bytes": 127150,
        "original_bytes": 1764000
      },
      "128": {
        "snr_db": -3.32,
        "psnr_db": 24.12,
        "mse": 0.0038747,
        "spectral_distortion_db": 11.84,
        "compression_ratio": 10.584,
        "space_saving_pct": 90.6,
        "effective_bitrate_kbps": 133.3,
        "encode_latency_ms": 265.01,
        "decode_latency_ms": 577.74,
        "compressed_bytes": 166672,
        "original_bytes": 1764000
      },
      "192": {
        "snr_db": -3.33,
        "psnr_db": 24.11,
        "mse": 0.0038777,
        "spectral_distortion_db": 11.84,
        "compression_ratio": 7.559,
        "space_saving_pct": 86.8,
        "effective_bitrate_kbps": 186.7,
        "encode_latency_ms": 391.92,
        "decode_latency_ms": 412.92,
        "compressed_bytes": 233378,
        "original_bytes": 1764000
      },
      "256": {
        "snr_db": -3.33,
        "psnr_db": 24.11,
        "mse": 0.0038777,
        "spectral_distortion_db": 11.84,
        "compression_ratio": 7.564,
        "space_saving_pct": 86.8,
        "effective_bitrate_kbps": 186.6,
        "encode_latency_ms": 548.75,
        "decode_latency_ms": 524.1,
        "compressed_bytes": 233223,
        "original_bytes": 1764000
      },
      "320": {
        "snr_db": -3.33,
        "psnr_db": 24.11,
        "mse": 0.0038777,
        "spectral_distortion_db": 11.84,
        "compression_ratio": 7.563,
        "space_saving_pct": 86.8,
        "effective_bitrate_kbps": 186.6,
        "encode_latency_ms": 483.88,
        "decode_latency_ms": 375.29,
        "compressed_bytes": 233241,
        "original_bytes": 1764000
      }
    },
    "opus": {
      "32": {
        "snr_db": 18.35,
        "psnr_db": 45.79,
        "mse": 2.64e-05,
        "spectral_distortion_db": 11.52,
        "compression_ratio": 41.632,
        "space_saving_pct": 97.6,
        "effective_bitrate_kbps": 33.9,
        "encode_latency_ms": 288.72,
        "decode_latency_ms": 449.16,
        "compressed_bytes": 42371,
        "original_bytes": 1764000
      },
      "64": {
        "snr_db": 22.89,
        "psnr_db": 50.33,
        "mse": 9.3e-06,
        "spectral_distortion_db": 10.72,
        "compression_ratio": 21.612,
        "space_saving_pct": 95.4,
        "effective_bitrate_kbps": 65.3,
        "encode_latency_ms": 213.51,
        "decode_latency_ms": 344.89,
        "compressed_bytes": 81623,
        "original_bytes": 1764000
      },
      "96": {
        "snr_db": 24.98,
        "psnr_db": 52.42,
        "mse": 5.7e-06,
        "spectral_distortion_db": 10.47,
        "compression_ratio": 14.38,
        "space_saving_pct": 93.0,
        "effective_bitrate_kbps": 98.1,
        "encode_latency_ms": 235.1,
        "decode_latency_ms": 394.81,
        "compressed_bytes": 122671,
        "original_bytes": 1764000
      },
      "128": {
        "snr_db": 26.2,
        "psnr_db": 53.64,
        "mse": 4.3e-06,
        "spectral_distortion_db": 10.28,
        "compression_ratio": 10.768,
        "space_saving_pct": 90.7,
        "effective_bitrate_kbps": 131.1,
        "encode_latency_ms": 267.55,
        "decode_latency_ms": 655.69,
        "compressed_bytes": 163814,
        "original_bytes": 1764000
      },
      "192": {
        "snr_db": 27.41,
        "psnr_db": 54.85,
        "mse": 3.3e-06,
        "spectral_distortion_db": 10.16,
        "compression_ratio": 7.28,
        "space_saving_pct": 86.3,
        "effective_bitrate_kbps": 193.9,
        "encode_latency_ms": 269.02,
        "decode_latency_ms": 444.73,
        "compressed_bytes": 242319,
        "original_bytes": 1764000
      },
      "256": {
        "snr_db": 28.28,
        "psnr_db": 55.72,
        "mse": 2.7e-06,
        "spectral_distortion_db": 10.14,
        "compression_ratio": 5.73,
        "space_saving_pct": 82.5,
        "effective_bitrate_kbps": 246.3,
        "encode_latency_ms": 250.58,
        "decode_latency_ms": 471.2,
        "compressed_bytes": 307838,
        "original_bytes": 1764000
      },
      "320": {
        "error": "Encoding failed. ffmpeg/avlib returned error code: 1\n\nCommand:['ffmpeg', '-y', '-f', 'wav', '-i', '/tmp/tmpkrwkq1x4', '-acodec', 'libopus', '-b:a', '320k', '-f', 'opus', '/tmp/tmp5r57c02t']\n\nOutput from ffmpeg/avlib:\n\nffmpeg version 4.4.2-0ubuntu0.22.04.1 Copyright (c) 2000-2021 the FFmpeg developers\n  built with gcc 11 (Ubuntu 11.2.0-19ubuntu1)\n  configuration: --prefix=/usr --extra-version=0ubuntu0.22.04.1 --toolchain=hardened --libdir=/usr/lib/x86_64-linux-gnu --incdir=/usr/include/x86_64-linux-gnu --arch=amd64 --enable-gpl --disable-stripping --enable-gnutls --enable-ladspa --enable-libaom --enable-libass --enable-libbluray --enable-libbs2b --enable-libcaca --enable-libcdio --enable-libcodec2 --enable-libdav1d --enable-libflite --enable-libfontconfig --enable-libfreetype --enable-libfribidi --enable-libgme --enable-libgsm --enable-libjack --enable-libmp3lame --enable-libmysofa --enable-libopenjpeg --enable-libopenmpt --enable-libopus --enable-libpulse --enable-librabbitmq --enable-librubberband --enable-libshine --enable-libsnappy --enable-libsoxr --enable-libspeex --enable-libsrt --enable-libssh --enable-libtheora --enable-libtwolame --enable-libvidstab --enable-libvorbis --enable-libvpx --enable-libwebp --enable-libx265 --enable-libxml2 --enable-libxvid --enable-libzimg --enable-libzmq --enable-libzvbi --enable-lv2 --enable-omx --enable-openal --enable-opencl --enable-opengl --enable-sdl2 --enable-pocketsphinx --enable-librsvg --enable-libmfx --enable-libdc1394 --enable-libdrm --enable-libiec61883 --enable-chromaprint --enable-frei0r --enable-libx264 --enable-shared\n  libavutil      56. 70.100 / 56. 70.100\n  libavcodec     58.134.100 / 58.134.100\n  libavformat    58. 76.100 / 58. 76.100\n  libavdevice    58. 13.100 / 58. 13.100\n  libavfilter     7.110.100 /  7.110.100\n  libswscale      5.  9.100 /  5.  9.100\n  libswresample   3.  9.100 /  3.  9.100\n  libpostproc    55.  9.100 / 55.  9.100\nGuessed Channel Layout for Input Stream #0.0 : mono\nInput #0, wav, from '/tmp/tmpkrwkq1x4':\n  Duration: 00:00:10.00, bitrate: 705 kb/s\n  Stream #0:0: Audio: pcm_s16le ([1][0][0][0] / 0x0001), 44100 Hz, mono, s16, 705 kb/s\nStream mapping:\n  Stream #0:0 -> #0:0 (pcm_s16le (native) -> opus (libopus))\nPress [q] to stop, [?] for help\n[libopus @ 0x5a6edba4f7c0] The bit rate 320000 bps is unsupported. Please choose a value between 500 and 256000.\nError initializing output stream 0:0 -- Error while opening encoder for output stream #0:0 - maybe incorrect parameters such as bit_rate, rate, width or height\nConversion failed!\n"
      }
    },
    "ogg": {
      "32": {
        "snr_db": 16.88,
        "psnr_db": 44.32,
        "mse": 3.7e-05,
        "spectral_distortion_db": 8.3,
        "compression_ratio": 39.046,
        "space_saving_pct": 97.4,
        "effective_bitrate_kbps": 36.1,
        "encode_latency_ms": 328.48,
        "decode_latency_ms": 208.08,
        "compressed_bytes": 45178,
        "original_bytes": 1764000
      },
      "64": {
        "snr_db": 21.51,
        "psnr_db": 48.95,
        "mse": 1.27e-05,
        "spectral_distortion_db": 6.91,
        "compression_ratio": 25.122,
        "space_saving_pct": 96.0,
        "effective_bitrate_kbps": 56.2,
        "encode_latency_ms": 257.05,
        "decode_latency_ms": 241.83,
        "compressed_bytes": 70216,
        "original_bytes": 1764000
      },
      "96": {
        "snr_db": 25.75,
        "psnr_db": 53.19,
        "mse": 4.8e-06,
        "spectral_distortion_db": 6.62,
        "compression_ratio": 20.479,
        "space_saving_pct": 95.1,
        "effective_bitrate_kbps": 68.9,
        "encode_latency_ms": 392.46,
        "decode_latency_ms": 302.59,
        "compressed_bytes": 86135,
        "original_bytes": 1764000
      },
      "128": {
        "snr_db": 30.05,
        "psnr_db": 57.49,
        "mse": 1.8e-06,
        "spectral_distortion_db": 6.34,
        "compression_ratio": 14.486,
        "space_saving_pct": 93.1,
        "effective_bitrate_kbps": 97.4,
        "encode_latency_ms": 236.07,
        "decode_latency_ms": 238.71,
        "compressed_bytes": 121775,
        "original_bytes": 1764000
      },
      "192": {
        "snr_db": 34.61,
        "psnr_db": 62.05,
        "mse": 6e-07,
        "spectral_distortion_db": 6.1,
        "compression_ratio": 9.076,
        "space_saving_pct": 89.0,
        "effective_bitrate_kbps": 155.5,
        "encode_latency_ms": 249.4,
        "decode_latency_ms": 295.67,
        "compressed_bytes": 194351,
        "original_bytes": 1764000
      },
      "256": {
        "error": "Encoding failed. ffmpeg/avlib returned error code: 1\n\nCommand:['ffmpeg', '-y', '-f', 'wav', '-i', '/tmp/tmpcphraunr', '-acodec', 'libvorbis', '-b:a', '256k', '-f', 'ogg', '/tmp/tmpiqyy31yt']\n\nOutput from ffmpeg/avlib:\n\nffmpeg version 4.4.2-0ubuntu0.22.04.1 Copyright (c) 2000-2021 the FFmpeg developers\n  built with gcc 11 (Ubuntu 11.2.0-19ubuntu1)\n  configuration: --prefix=/usr --extra-version=0ubuntu0.22.04.1 --toolchain=hardened --libdir=/usr/lib/x86_64-linux-gnu --incdir=/usr/include/x86_64-linux-gnu --arch=amd64 --enable-gpl --disable-stripping --enable-gnutls --enable-ladspa --enable-libaom --enable-libass --enable-libbluray --enable-libbs2b --enable-libcaca --enable-libcdio --enable-libcodec2 --enable-libdav1d --enable-libflite --enable-libfontconfig --enable-libfreetype --enable-libfribidi --enable-libgme --enable-libgsm --enable-libjack --enable-libmp3lame --enable-libmysofa --enable-libopenjpeg --enable-libopenmpt --enable-libopus --enable-libpulse --enable-librabbitmq --enable-librubberband --enable-libshine --enable-libsnappy --enable-libsoxr --enable-libspeex --enable-libsrt --enable-libssh --enable-libtheora --enable-libtwolame --enable-libvidstab --enable-libvorbis --enable-libvpx --enable-libwebp --enable-libx265 --enable-libxml2 --enable-libxvid --enable-libzimg --enable-libzmq --enable-libzvbi --enable-lv2 --enable-omx --enable-openal --enable-opencl --enable-opengl --enable-sdl2 --enable-pocketsphinx --enable-librsvg --enable-libmfx --enable-libdc1394 --enable-libdrm --enable-libiec61883 --enable-chromaprint --enable-frei0r --enable-libx264 --enable-shared\n  libavutil      56. 70.100 / 56. 70.100\n  libavcodec     58.134.100 / 58.134.100\n  libavformat    58. 76.100 / 58. 76.100\n  libavdevice    58. 13.100 / 58. 13.100\n  libavfilter     7.110.100 /  7.110.100\n  libswscale      5.  9.100 /  5.  9.100\n  libswresample   3.  9.100 /  3.  9.100\n  libpostproc    55.  9.100 / 55.  9.100\nGuessed Channel Layout for Input Stream #0.0 : mono\nInput #0, wav, from '/tmp/tmpcphraunr':\n  Duration: 00:00:10.00, bitrate: 705 kb/s\n  Stream #0:0: Audio: pcm_s16le ([1][0][0][0] / 0x0001), 44100 Hz, mono, s16, 705 kb/s\nStream mapping:\n  Stream #0:0 -> #0:0 (pcm_s16le (native) -> vorbis (libvorbis))\nPress [q] to stop, [?] for help\n[libvorbis @ 0x57b01b8307c0] encoder setup failed\nError initializing output stream 0:0 -- Error while opening encoder for output stream #0:0 - maybe incorrect parameters such as bit_rate, rate, width or height\nConversion failed!\n"
      },
      "320": {
        "error": "Encoding failed. ffmpeg/avlib returned error code: 1\n\nCommand:['ffmpeg', '-y', '-f', 'wav', '-i', '/tmp/tmp45n8zm0x', '-acodec', 'libvorbis', '-b:a', '320k', '-f', 'ogg', '/tmp/tmp2lws8x_4']\n\nOutput from ffmpeg/avlib:\n\nffmpeg version 4.4.2-0ubuntu0.22.04.1 Copyright (c) 2000-2021 the FFmpeg developers\n  built with gcc 11 (Ubuntu 11.2.0-19ubuntu1)\n  configuration: --prefix=/usr --extra-version=0ubuntu0.22.04.1 --toolchain=hardened --libdir=/usr/lib/x86_64-linux-gnu --incdir=/usr/include/x86_64-linux-gnu --arch=amd64 --enable-gpl --disable-stripping --enable-gnutls --enable-ladspa --enable-libaom --enable-libass --enable-libbluray --enable-libbs2b --enable-libcaca --enable-libcdio --enable-libcodec2 --enable-libdav1d --enable-libflite --enable-libfontconfig --enable-libfreetype --enable-libfribidi --enable-libgme --enable-libgsm --enable-libjack --enable-libmp3lame --enable-libmysofa --enable-libopenjpeg --enable-libopenmpt --enable-libopus --enable-libpulse --enable-librabbitmq --enable-librubberband --enable-libshine --enable-libsnappy --enable-libsoxr --enable-libspeex --enable-libsrt --enable-libssh --enable-libtheora --enable-libtwolame --enable-libvidstab --enable-libvorbis --enable-libvpx --enable-libwebp --enable-libx265 --enable-libxml2 --enable-libxvid --enable-libzimg --enable-libzmq --enable-libzvbi --enable-lv2 --enable-omx --enable-openal --enable-opencl --enable-opengl --enable-sdl2 --enable-pocketsphinx --enable-librsvg --enable-libmfx --enable-libdc1394 --enable-libdrm --enable-libiec61883 --enable-chromaprint --enable-frei0r --enable-libx264 --enable-shared\n  libavutil      56. 70.100 / 56. 70.100\n  libavcodec     58.134.100 / 58.134.100\n  libavformat    58. 76.100 / 58. 76.100\n  libavdevice    58. 13.100 / 58. 13.100\n  libavfilter     7.110.100 /  7.110.100\n  libswscale      5.  9.100 /  5.  9.100\n  libswresample   3.  9.100 /  3.  9.100\n  libpostproc    55.  9.100 / 55.  9.100\nGuessed Channel Layout for Input Stream #0.0 : mono\nInput #0, wav, from '/tmp/tmp45n8zm0x':\n  Duration: 00:00:10.00, bitrate: 705 kb/s\n  Stream #0:0: Audio: pcm_s16le ([1][0][0][0] / 0x0001), 44100 Hz, mono, s16, 705 kb/s\nStream mapping:\n  Stream #0:0 -> #0:0 (pcm_s16le (native) -> vorbis (libvorbis))\nPress [q] to stop, [?] for help\n[libvorbis @ 0x5ffc091837c0] encoder setup failed\nError initializing output stream 0:0 -- Error while opening encoder for output stream #0:0 - maybe incorrect parameters such as bit_rate, rate, width or height\nConversion failed!\n"
      }
    }
  }
}